<svg xmlns="http://www.w3.org/2000/svg" xmlns:xlink="http://www.w3.org/1999/xlink" width="500" zoomAndPan="magnify" viewBox="0 0 375 374.999991" height="500" preserveAspectRatio="xMidYMid meet" version="1.0"><defs><clipPath id="989d300d12"><path d="M 29.054688 126 L 338.804688 126 L 338.804688 324.101562 L 29.054688 324.101562 Z M 29.054688 126 " clip-rule="nonzero"/></clipPath><clipPath id="ccc38afd7c"><path d="M 34 106.601562 L 334 106.601562 L 334 222 L 34 222 Z M 34 106.601562 " clip-rule="nonzero"/></clipPath></defs><g clip-path="url(#989d300d12)"><path fill="#ffffff" d="M 104.542969 256.101562 C 106.191406 252.851562 107.089844 252.75 107.015625 249.546875 C 106.941406 246.347656 106.039062 240.617188 106.367188 238.644531 C 106.367188 238.644531 95.671875 240.246094 92.925781 231.839844 C 92.925781 231.839844 97.621094 224.523438 106.964844 231.726562 C 106.964844 231.726562 108.105469 231.769531 108.101562 229.761719 C 108.09375 224.628906 113.355469 224.921875 114.757812 224.023438 C 115.933594 223.273438 119.710938 222.667969 121.378906 224.246094 C 122.96875 225.753906 125.980469 224.035156 128.5625 227.113281 C 130.191406 229.058594 137.726562 229.039062 150.71875 228.789062 C 182.84375 228.171875 190.605469 235.601562 226.808594 223.183594 C 237.492188 219.519531 245.453125 221.96875 250.769531 227.632812 C 254.878906 227.554688 264.257812 228.605469 263.632812 239.921875 C 262.832031 254.378906 260.234375 277.390625 268.328125 280.695312 C 268.328125 280.695312 267.003906 281.082031 266.082031 280.59375 C 266.082031 280.59375 266.769531 281.46875 267.777344 282.007812 C 268.792969 282.546875 269.101562 283.394531 269.175781 284.132812 C 269.175781 284.132812 268.128906 282.90625 266.96875 283.058594 C 266.96875 283.058594 269.230469 284.195312 268.304688 287.371094 C 268.304688 287.371094 268.140625 285.359375 267.066406 284.65625 C 267.066406 284.65625 267.191406 285.683594 266.832031 286.960938 C 266.832031 286.960938 266.59375 285.910156 265.980469 285.382812 C 265.980469 285.382812 264.609375 289.011719 267.878906 289.085938 C 267.878906 289.085938 264.957031 291.535156 264.007812 285.207031 C 264.007812 285.207031 263.957031 284.082031 262.65625 283.308594 C 262.65625 283.308594 263.183594 285.15625 262.859375 286.257812 C 262.859375 286.257812 262.207031 283.882812 261.832031 283.160156 C 261.457031 282.433594 261.535156 282.007812 261.785156 280.457031 C 262.03125 278.90625 261.609375 277.703125 261.109375 275.929688 C 260.609375 274.152344 260.085938 268.375 260.285156 260.972656 C 260.480469 253.75 261.054688 234.976562 255.011719 233.859375 C 260.210938 244.378906 260.125 259.566406 254.988281 271.160156 C 251.042969 280.066406 254.6875 285.320312 255.988281 287.019531 C 257.285156 288.71875 256.5625 291.546875 255.488281 296.449219 C 255.179688 297.851562 254.792969 299.800781 254.417969 302.074219 C 255.328125 300.386719 256.035156 298.609375 256.144531 296.394531 C 260.105469 300.160156 249.285156 311.429688 255.757812 322.945312 C 255.757812 322.945312 256 309.257812 260.945312 305.566406 C 260.945312 305.566406 258.175781 312.375 261.261719 319.304688 C 264.34375 312.375 261.574219 305.566406 261.574219 305.566406 C 266.519531 309.257812 266.761719 322.945312 266.761719 322.945312 C 273.234375 311.429688 262.414062 300.160156 266.375 296.394531 C 266.746094 303.855469 273.886719 306.324219 272.628906 317.265625 C 277.667969 311.34375 276.359375 301.636719 276.359375 301.636719 C 281.402344 315.664062 272.382812 324.109375 272.382812 324.109375 C 282.789062 318.980469 279.519531 301.875 284.164062 300.132812 C 283.484375 307.945312 284.503906 314.160156 284.503906 314.160156 C 288.769531 304.789062 286.101562 295.8125 286.101562 295.8125 C 291.871094 302.023438 288.71875 312.265625 288.71875 312.265625 C 299.820312 297.511719 308.5 295.796875 308.5 295.796875 C 308.5 295.796875 299.140625 301.367188 292.152344 314.269531 C 292.152344 314.269531 296.765625 310.445312 300.308594 309.0625 C 295.023438 314.015625 293.957031 320.613281 293.957031 320.613281 C 297.785156 312.65625 312.136719 302.507812 312.136719 302.507812 C 304.914062 308.722656 302.730469 316.730469 302.730469 316.730469 C 309.273438 306.269531 317.902344 302.363281 317.902344 302.363281 C 310.730469 308.527344 308.789062 317.070312 308.789062 317.070312 C 316.351562 303.773438 327.355469 298.820312 327.355469 298.820312 C 316.402344 308.042969 315.964844 319.742188 315.964844 319.742188 C 318.632812 309.9375 327.550781 304.160156 327.550781 304.160156 C 319.214844 313.285156 320.570312 320.03125 320.570312 320.03125 C 320.519531 315.859375 324.109375 311.972656 324.109375 311.972656 C 323.285156 315.226562 325.03125 319.449219 325.03125 319.449219 C 326.777344 315.445312 329.070312 312.265625 331.011719 310.015625 C 336.011719 294.78125 338.722656 278.507812 338.722656 261.601562 C 338.722656 251.238281 337.703125 241.113281 335.761719 231.324219 C 316.878906 218.019531 275.382812 182.953125 270.605469 180.246094 C 265.128906 177.140625 263.375 182.003906 255.832031 173.519531 C 248.289062 165.035156 223.957031 140.15625 214.757812 132.292969 C 205.5625 124.429688 203.753906 126.03125 200.140625 126.964844 C 196.523438 127.894531 192.90625 133.480469 196.988281 140.050781 C 201.066406 146.621094 197.917969 152.878906 193.992188 158.363281 C 190.066406 163.847656 193.628906 168.761719 193.628906 168.761719 C 201.070312 185.417969 232.996094 200.160156 232.996094 200.160156 C 238.496094 202.167969 247.339844 205.292969 236.140625 203.574219 C 219.683594 201.046875 206.335938 191.617188 194.921875 182.988281 C 182.265625 173.417969 176.738281 180.351562 176.632812 184.746094 C 176.53125 189.144531 174.617188 190.4375 165.578125 184.382812 C 156.535156 178.332031 143.285156 164.054688 143.285156 164.054688 C 137.15625 158.492188 132.582031 152.542969 125.804688 159.25 C 123.3125 161.71875 120.640625 165.519531 121.792969 168.089844 C 123.394531 171.660156 124.066406 174.554688 120.140625 176.625 C 116.214844 178.695312 103.867188 180.503906 104.433594 189.453125 C 105.003906 198.402344 122.101562 206.835938 122.101562 206.835938 C 94.871094 205.25 101.058594 180.507812 78.394531 198.660156 C 65.929688 208.648438 44.410156 220.925781 32.964844 227.210938 C 32.964844 227.214844 32.960938 227.214844 32.957031 227.21875 C 32.601562 228.789062 32.269531 230.371094 31.960938 231.960938 C 31.964844 231.960938 31.972656 231.957031 31.976562 231.953125 C 30.117188 241.550781 29.136719 251.460938 29.136719 261.601562 C 29.136719 278.507812 31.851562 294.78125 36.847656 310.015625 C 38.789062 312.265625 41.078125 315.449219 42.828125 319.449219 C 42.828125 319.449219 44.574219 315.226562 43.75 311.972656 C 43.75 311.972656 47.335938 315.859375 47.289062 320.03125 C 47.289062 320.03125 48.644531 313.285156 40.308594 304.160156 C 40.308594 304.160156 49.226562 309.9375 51.894531 319.742188 C 51.894531 319.742188 51.457031 308.042969 40.5 298.820312 C 40.5 298.820312 51.503906 303.769531 59.066406 317.070312 C 59.066406 317.070312 57.128906 308.527344 49.953125 302.363281 C 49.953125 302.363281 58.585938 306.269531 65.128906 316.730469 C 65.128906 316.730469 62.945312 308.722656 55.722656 302.507812 C 55.722656 302.507812 70.070312 312.65625 73.902344 320.613281 C 73.902344 320.613281 72.835938 314.015625 67.550781 309.0625 C 71.09375 310.445312 75.703125 314.269531 75.703125 314.269531 C 68.71875 301.367188 59.359375 295.796875 59.359375 295.796875 C 59.359375 295.796875 68.035156 297.511719 79.136719 312.265625 C 79.136719 312.265625 75.988281 302.023438 81.753906 295.8125 C 81.753906 295.8125 79.089844 304.789062 83.355469 314.160156 C 83.355469 314.160156 84.371094 307.945312 83.695312 300.132812 C 88.339844 301.875 85.070312 318.980469 95.472656 324.109375 C 95.472656 324.109375 86.457031 315.664062 91.5 301.636719 C 91.5 301.636719 90.191406 311.34375 95.230469 317.265625 C 93.972656 306.324219 101.113281 303.855469 101.484375 296.394531 C 105.445312 300.160156 94.625 311.429688 101.097656 322.945312 C 101.097656 322.945312 101.339844 309.257812 106.285156 305.566406 C 106.285156 305.566406 103.28125 312.941406 107.007812 320.160156 C 110.738281 312.941406 107.734375 305.566406 107.734375 305.566406 C 112.675781 309.257812 112.917969 322.945312 112.917969 322.945312 C 119.394531 311.429688 108.574219 300.160156 112.53125 296.394531 C 112.902344 303.855469 120.042969 306.324219 118.785156 317.265625 C 123.828125 311.34375 122.519531 301.636719 122.519531 301.636719 C 127.558594 315.664062 118.542969 324.109375 118.542969 324.109375 C 128.945312 318.980469 125.679688 301.875 130.320312 300.132812 C 129.644531 307.945312 130.664062 314.160156 130.664062 314.160156 C 134.929688 304.789062 132.261719 295.8125 132.261719 295.8125 C 138.03125 302.023438 134.878906 312.265625 134.878906 312.265625 C 138.742188 307.128906 142.3125 303.574219 145.324219 301.121094 C 144.800781 297.84375 143.949219 294.53125 142.589844 291.820312 C 142.589844 291.820312 140.6875 291.320312 138.964844 288.96875 C 137.242188 286.617188 135.894531 286.242188 134.644531 285.917969 C 133.394531 285.59375 131.023438 283.617188 130.546875 282.742188 C 130.074219 281.863281 129.121094 281.515625 128.273438 280.664062 C 127.425781 279.8125 127.398438 280.867188 127.101562 274.8125 C 126.800781 268.757812 122.828125 262.855469 119.28125 263.179688 C 115.734375 263.503906 113.1875 262.980469 111.210938 263.582031 C 109.238281 264.179688 108.390625 262.804688 107.742188 261.90625 C 107.089844 261.003906 106.515625 261.480469 105.589844 261.304688 C 104.667969 261.128906 102.894531 259.355469 104.542969 256.101562 Z M 104.542969 256.101562 " fill-opacity="1" fill-rule="evenodd"/></g><path fill="#ffffff" d="M 224.527344 277.789062 C 198.691406 303.40625 178.664062 279.609375 163.648438 286.796875 C 163.648438 286.796875 163.398438 284.519531 166.023438 278.792969 C 168.644531 273.0625 166.121094 265.585938 166.121094 265.585938 C 166.121094 265.585938 166.621094 274.339844 164.121094 278.542969 C 161.625 282.742188 161.074219 285.34375 162.222656 291.949219 C 163.070312 296.800781 161.78125 301.136719 160.84375 304.246094 C 162.785156 302.941406 164.0625 302.363281 164.0625 302.363281 C 162.558594 303.652344 161.289062 305.046875 160.214844 306.445312 C 160.15625 306.679688 160.109375 306.902344 160.074219 307.109375 C 159.96875 307.722656 159.894531 308.742188 159.84375 309.992188 C 166.515625 301.96875 173.515625 298.820312 173.515625 298.820312 C 162.558594 308.042969 162.121094 319.742188 162.121094 319.742188 C 164.789062 309.9375 173.707031 304.160156 173.707031 304.160156 C 165.371094 313.285156 166.730469 320.03125 166.730469 320.03125 C 166.679688 315.859375 170.265625 311.972656 170.265625 311.972656 C 169.441406 315.226562 171.1875 319.449219 171.1875 319.449219 C 172.8125 315.734375 174.902344 312.726562 176.746094 310.515625 C 175.441406 309.246094 173.917969 307.976562 172.136719 306.730469 C 172.136719 306.730469 174.378906 307.273438 177.5 309.636719 C 179.542969 307.324219 181.125 306.101562 181.125 306.101562 C 179.984375 307.476562 179.058594 308.894531 178.3125 310.277344 C 178.847656 310.714844 179.402344 311.207031 179.96875 311.75 C 181.042969 310.15625 182.109375 308.757812 183.132812 307.539062 C 181.894531 305.296875 180.105469 302.875 177.515625 300.421875 C 177.515625 300.421875 180.5 301.96875 184.339844 306.164062 C 188.179688 301.96875 191.160156 300.421875 191.160156 300.421875 C 188.574219 302.875 186.78125 305.296875 185.542969 307.539062 C 186.570312 308.757812 187.632812 310.15625 188.707031 311.75 C 189.273438 311.203125 189.828125 310.714844 190.363281 310.277344 C 189.617188 308.894531 188.695312 307.476562 187.550781 306.101562 C 187.550781 306.101562 189.132812 307.324219 191.175781 309.636719 C 194.300781 307.273438 196.539062 306.730469 196.539062 306.730469 C 194.757812 307.976562 193.234375 309.246094 191.933594 310.515625 C 193.777344 312.726562 195.867188 315.734375 197.488281 319.449219 C 197.488281 319.449219 199.234375 315.226562 198.410156 311.972656 C 198.410156 311.972656 202 315.859375 201.949219 320.03125 C 201.949219 320.03125 203.304688 313.285156 194.96875 304.160156 C 194.96875 304.160156 203.886719 309.9375 206.554688 319.742188 C 206.554688 319.742188 206.121094 308.042969 195.164062 298.820312 C 195.164062 298.820312 206.167969 303.773438 213.726562 317.070312 C 213.726562 317.070312 211.789062 308.527344 204.613281 302.363281 C 204.613281 302.363281 213.246094 306.269531 219.789062 316.730469 C 219.789062 316.730469 217.605469 308.722656 210.386719 302.507812 C 210.386719 302.507812 220.023438 309.328125 225.609375 316.167969 L 226.199219 315.261719 C 226.199219 315.261719 226.304688 315.09375 226.488281 314.785156 C 225.527344 312.925781 224.15625 310.882812 222.210938 309.0625 C 224.0625 309.785156 226.207031 311.171875 227.832031 312.335938 C 228.035156 311.933594 228.253906 311.496094 228.472656 311.03125 C 221.804688 300.429688 214.019531 295.796875 214.019531 295.796875 C 214.019531 295.796875 220.75 297.125 229.9375 307.523438 C 230.703125 305.398438 231.292969 303.089844 231.34375 300.953125 C 231.34375 300.953125 232.492188 297.925781 230.171875 292.625 C 227.847656 287.320312 227.671875 283.796875 227.222656 280.140625 C 226.773438 276.492188 221.378906 268.636719 215.53125 272.289062 C 215.53125 272.289062 220.953125 271.289062 224.527344 277.789062 Z M 224.527344 277.789062 " fill-opacity="1" fill-rule="evenodd"/><path fill="#ffffff" d="M 240.542969 303.363281 C 241.679688 307.191406 241.984375 313.539062 244.570312 318.464844 C 244.996094 318.046875 245.421875 317.503906 245.757812 316.820312 C 244.628906 313.535156 244.066406 309.21875 245.414062 304.039062 C 245.195312 302.175781 245.035156 300.902344 245.035156 300.902344 C 251.320312 295.800781 243.140625 283.15625 246.394531 281.054688 C 248.792969 279.503906 254.464844 271.699219 254.015625 265.546875 C 253.027344 269.878906 247.917969 277.535156 245.707031 278.738281 C 239.332031 282.207031 249.421875 295.046875 243.636719 299.175781 C 242.828125 299.753906 241.734375 301.304688 240.542969 303.363281 Z M 240.542969 303.363281 " fill-opacity="1" fill-rule="evenodd"/><path fill="#ffffff" d="M 238.015625 314.160156 C 238.015625 314.160156 238.484375 311.304688 238.574219 307.035156 C 237.960938 308.25 237.347656 309.527344 236.761719 310.8125 C 237.089844 311.910156 237.503906 313.03125 238.015625 314.160156 Z M 238.015625 314.160156 " fill-opacity="1" fill-rule="evenodd"/><path fill="#ffffff" d="M 146.101562 312.8125 C 146.117188 311.875 146.117188 310.726562 146.078125 309.433594 C 141.128906 314.339844 140.113281 320.613281 140.113281 320.613281 C 141.324219 318.101562 143.578125 315.371094 146.101562 312.8125 Z M 146.101562 312.8125 " fill-opacity="1" fill-rule="evenodd"/><path fill="#ffffff" d="M 138.3125 314.269531 C 138.3125 314.269531 142.589844 310.71875 146.070312 309.222656 C 146.015625 307.5625 145.898438 305.679688 145.679688 303.71875 C 143.25 306.460938 140.648438 309.957031 138.3125 314.269531 Z M 138.3125 314.269531 " fill-opacity="1" fill-rule="evenodd"/><path fill="#ffffff" d="M 153.21875 308.117188 C 152.40625 309.269531 151.730469 310.386719 151.171875 311.410156 C 151.132812 312.179688 151.085938 312.925781 151.035156 313.613281 C 151.714844 312.710938 152.402344 311.875 153.089844 311.09375 C 153.183594 309.914062 153.234375 308.882812 153.21875 308.117188 Z M 153.21875 308.117188 " fill-opacity="1" fill-rule="evenodd"/><path fill="#ffffff" d="M 151.296875 308.011719 C 151.902344 307.496094 152.492188 307.003906 153.058594 306.539062 C 152.703125 304.289062 151.894531 301.125 151.3125 298.253906 C 151.148438 298.386719 150.984375 298.527344 150.816406 298.671875 C 150.921875 299.910156 151.097656 301.410156 151.382812 303.15625 C 151.382812 303.15625 151.371094 305.355469 151.296875 308.011719 Z M 151.296875 308.011719 " fill-opacity="1" fill-rule="evenodd"/><path fill="#ffffff" d="M 150.722656 297.4375 C 150.855469 297.363281 150.984375 297.296875 151.109375 297.230469 C 150.910156 296.148438 150.753906 295.132812 150.683594 294.25 C 150.683594 294.25 150.59375 295.332031 150.722656 297.4375 Z M 150.722656 297.4375 " fill-opacity="1" fill-rule="evenodd"/><path fill="#ffffff" d="M 184.339844 310.066406 C 183.5625 311.992188 183.179688 313.714844 183.007812 315.121094 C 183.449219 315.679688 183.894531 316.273438 184.339844 316.910156 C 184.78125 316.273438 185.226562 315.679688 185.667969 315.121094 C 185.496094 313.714844 185.117188 311.992188 184.339844 310.066406 Z M 184.339844 310.066406 " fill-opacity="1" fill-rule="evenodd"/><path fill="#ffffff" d="M 179.105469 313.089844 C 178.671875 312.554688 178.203125 312.019531 177.703125 311.488281 C 175.417969 316.285156 175.210938 320.371094 175.210938 320.371094 C 176.460938 317.609375 177.78125 315.191406 179.105469 313.089844 Z M 179.105469 313.089844 " fill-opacity="1" fill-rule="evenodd"/><path fill="#ffffff" d="M 189.574219 313.089844 C 190.898438 315.191406 192.21875 317.609375 193.464844 320.371094 C 193.464844 320.371094 193.257812 316.285156 190.976562 311.488281 C 190.472656 312.019531 190.003906 312.554688 189.574219 313.089844 Z M 189.574219 313.089844 " fill-opacity="1" fill-rule="evenodd"/><g clip-path="url(#ccc38afd7c)"><path fill="#ffffff" d="M 34.886719 219.597656 C 52.449219 212.914062 108.441406 159.023438 120.5 148.742188 C 131.96875 138.964844 139.769531 147.292969 144.265625 151.378906 C 148.761719 155.46875 160.851562 163.589844 160.851562 163.589844 L 151.496094 153.449219 C 151.496094 153.449219 153.359375 152.050781 173.609375 133.121094 C 193.859375 114.1875 200.472656 115.429688 205.847656 116.359375 C 211.21875 117.289062 242.011719 146.050781 269.496094 169.640625 C 294.882812 191.433594 328.5625 217.816406 333.546875 221.710938 C 315.972656 155.4375 255.644531 106.601562 183.929688 106.601562 C 112.976562 106.601562 53.171875 154.402344 34.886719 219.597656 Z M 34.886719 219.597656 " fill-opacity="1" fill-rule="evenodd"/></g><path fill="#ffffff" d="M 360.28125 355.382812 C 351.734375 352.328125 342.816406 350.542969 333.820312 349.871094 C 331.960938 349.722656 331.960938 346.742188 333.820312 346.964844 C 343.261719 347.710938 352.253906 350.019531 361.027344 353.746094 C 361.917969 354.117188 361.25 355.757812 360.28125 355.382812 Z M 360.28125 355.382812 " fill-opacity="1" fill-rule="nonzero"/><path fill="#ffffff" d="M 7.210938 332.734375 C 13.082031 341.675781 23.414062 346.371094 33.449219 349.125 C 45.34375 352.402344 57.679688 353.296875 69.945312 353.222656 C 95.367188 353 120.9375 349.199219 146.210938 346.519531 C 197.871094 341.078125 249.828125 335.34375 301.859375 336.089844 C 313.378906 336.3125 325.050781 336.609375 336.496094 338.023438 C 362.511719 341.75 372.027344 349.722656 372.621094 350.242188 C 373.214844 350.765625 373.8125 351.285156 374.332031 351.808594 C 375 352.402344 374.332031 353.597656 373.4375 353.296875 C 362.957031 349.648438 352.625 346.21875 341.625 344.433594 C 329.65625 342.496094 317.542969 342.121094 305.425781 341.898438 C 278.816406 341.378906 252.128906 342.644531 225.59375 344.730469 C 199.28125 346.816406 173.042969 349.796875 146.878906 352.777344 C 121.160156 355.683594 95.144531 359.78125 69.203125 359.707031 C 46.605469 359.707031 15.609375 356.800781 2.082031 335.714844 C 0 332.511719 5.128906 329.605469 7.210938 332.734375 Z M 7.210938 332.734375 " fill-opacity="1" fill-rule="nonzero"/></svg>